<svg width="43" height="42" viewBox="0 0 43 42" fill="none" xmlns="http://www.w3.org/2000/svg">
<g clip-path="url(#clip0_2323_7892)">
<path d="M12.2936 39.0793C12.4764 39.2621 12.7244 39.3648 12.9829 39.3648H30.3883C30.6468 39.3648 30.8947 39.2621 31.0775 39.0793C31.2603 38.8965 31.363 38.6486 31.363 38.3901C31.363 38.1316 31.2603 37.8837 31.0775 37.7009C30.8947 37.5181 30.6468 37.4154 30.3883 37.4154H25.2711V34.1432H39.9613C41.4584 34.1432 42.6765 32.925 42.6765 31.4279V5.3198C42.6765 3.82269 41.4584 2.60455 39.9613 2.60455H3.40988C1.91278 2.60455 0.69464 3.82269 0.69464 5.3198V31.4279C0.69464 32.925 1.91278 34.1432 3.40988 34.1432H18.1001V37.4154H12.9829C12.7244 37.4154 12.4764 37.5181 12.2936 37.7009C12.1109 37.8837 12.0082 38.1316 12.0082 38.3901C12.0082 38.6486 12.1109 38.8965 12.2936 39.0793ZM20.0495 34.1432H23.3217V37.4154H20.0495V34.1432ZM2.86836 4.77827C3.01198 4.63464 3.20677 4.55396 3.40988 4.55396H39.9613C40.1644 4.55396 40.3592 4.63464 40.5028 4.77827C40.6464 4.92189 40.7271 5.11668 40.7271 5.3198V31.4279C40.7271 31.631 40.6464 31.8258 40.5028 31.9695C40.3592 32.1131 40.1644 32.1938 39.9613 32.1938H3.40988C3.20677 32.1938 3.01198 32.1131 2.86836 31.9695C2.72473 31.8258 2.64405 31.631 2.64405 31.4279V5.3198C2.64405 5.11668 2.72473 4.92189 2.86836 4.77827Z" fill="#2B4DEF" stroke="#2B4DEF" stroke-width="0.208865"/>
<path d="M8.38831 28.8175C8.17708 28.8168 7.96917 28.7649 7.78234 28.6663C7.59551 28.5677 7.43532 28.4254 7.31544 28.2515C7.19555 28.0776 7.11955 27.8772 7.09391 27.6675C7.06827 27.4579 7.09375 27.2451 7.16819 27.0474L9.50052 20.8267V14.8932C9.50064 14.7593 9.53287 14.6274 9.59451 14.5085C9.68683 14.3242 9.83989 14.1772 10.0279 14.0926L21.5259 9.16508C21.8508 9.02525 22.2009 8.95312 22.5546 8.95312C22.9083 8.95312 23.2583 9.02525 23.5832 9.16508L33.2154 13.2919C33.5307 13.4243 33.7999 13.6468 33.9891 13.9317C34.1784 14.2165 34.2792 14.5509 34.2791 14.8929C34.2789 15.2349 34.1776 15.5692 33.9881 15.8538C33.7985 16.1385 33.5291 16.3607 33.2137 16.4928L30.387 17.7059V23.0581C30.3882 23.3813 30.2988 23.6984 30.129 23.9734C29.9592 24.2484 29.7157 24.4704 29.4262 24.6141L23.7207 27.4651C23.358 27.6449 22.9586 27.7385 22.5537 27.7385C22.1488 27.7385 21.7494 27.6449 21.3867 27.4651L15.6829 24.6141C15.3935 24.4702 15.1502 24.2483 14.9804 23.9733C14.8106 23.6983 14.7212 23.3813 14.7221 23.0581V17.7042L11.2411 16.2125V20.8267L13.5751 27.0544C13.649 27.2517 13.674 27.4639 13.6481 27.673C13.6221 27.882 13.5459 28.0817 13.4261 28.255C13.3062 28.4282 13.1462 28.5699 12.9596 28.6678C12.7731 28.7658 12.5657 28.8172 12.355 28.8175H8.38831ZM11.7249 27.077L10.3708 23.4636L9.01665 27.077H11.7249ZM16.4627 23.0581L22.1664 25.9091C22.2872 25.9687 22.42 25.9996 22.5546 25.9996C22.6892 25.9996 22.822 25.9687 22.9427 25.9091L28.6465 23.0581V18.4509L23.5832 20.6196C23.2584 20.7598 22.9084 20.8322 22.5546 20.8322C22.2008 20.8322 21.8507 20.7598 21.5259 20.6196L16.4627 18.4509V23.0581ZM22.2117 19.0218C22.3204 19.0679 22.4373 19.0916 22.5555 19.0916C22.6736 19.0916 22.7905 19.0679 22.8992 19.0218L32.5296 14.8932L22.8975 10.7646C22.7889 10.7192 22.6723 10.6957 22.5546 10.6957C22.4368 10.6957 22.3203 10.7192 22.2117 10.7646L12.5795 14.8932L22.2117 19.0218Z" fill="#2B4DEF"/>
</g>
<defs>
<clipPath id="clip0_2323_7892">
<rect width="41.773" height="41.773" fill="white" transform="translate(0.799072 0.0976562)"/>
</clipPath>
</defs>
</svg>
