<svg width="33" height="33" viewBox="0 0 33 33" fill="none" xmlns="http://www.w3.org/2000/svg">
<g id="Group 57676">
<rect id="Rectangle 5228" opacity="0.8" x="0.537109" y="0.648438" width="32" height="32" rx="6.4" fill="#243648"/>
<path id="Vector 2" d="M11.3374 13.5746V20.676C11.3374 20.8178 11.3957 20.9533 11.4986 21.0507L12.1381 21.6566C12.234 21.7474 12.361 21.798 12.4931 21.798H20.785C20.9442 21.798 21.0946 21.7245 21.1924 21.5988L21.6287 21.0378C21.6991 20.9472 21.7374 20.8357 21.7374 20.721V13.6431C21.7374 13.17 21.1541 12.9462 20.8376 13.2978L19.5146 14.7678C19.2795 15.0291 18.8576 14.984 18.683 14.6789L17.2694 12.2091C17.0807 11.8794 16.6126 11.8596 16.3968 12.1721L14.5954 14.7798C14.4102 15.0479 14.0261 15.0794 13.7996 14.8452L12.2246 13.2159C11.9021 12.8822 11.3374 13.1105 11.3374 13.5746Z" fill="#FF9600"/>
</g>
</svg>
