<svg width="41" height="41" viewBox="0 0 41 41" fill="none" xmlns="http://www.w3.org/2000/svg">
<rect width="41" height="41" fill="#B7B7B7"/>
<g id="07/25" clip-path="url(#clip0_0_1)">
<rect width="1920" height="3867" transform="translate(-1526.5 -3699.02)" fill="white"/>
<g id="Group 57488">
<g id="Group 57461">
<g id="Group 33921">
<rect id="Rectangle 3458" x="-1526.5" y="-351.072" width="1920" height="519.488" fill="#243648"/>
<g id="Group 57404">
<g id="Frame 427320706">
<g id="Icon Youtube" clip-path="url(#clip1_0_1)">
<path id="Vector" d="M20.2422 39.4375C30.7356 39.4375 39.2422 30.9309 39.2422 20.4375C39.2422 9.94409 30.7356 1.4375 20.2422 1.4375C9.74878 1.4375 1.24219 9.94409 1.24219 20.4375C1.24219 30.9309 9.74878 39.4375 20.2422 39.4375Z" stroke="#999999" stroke-width="1.5" stroke-miterlimit="10"/>
<path id="Vector_2" d="M30.6422 15.2375C30.4422 14.3375 29.6422 13.6375 28.7422 13.3375C27.0422 12.9375 20.3422 12.9375 20.3422 12.9375C20.3422 12.9375 13.6422 12.9375 11.9422 13.3375C11.0422 13.5375 10.3422 14.3375 10.0422 15.2375C9.74219 16.9375 9.74219 20.4375 9.74219 20.4375C9.74219 20.4375 9.74219 23.9375 10.1422 25.6375C10.3422 26.5375 11.1422 27.2375 12.0422 27.5375C13.7422 27.9375 20.4422 27.9375 20.4422 27.9375C20.4422 27.9375 27.1422 27.9375 28.8422 27.5375C29.7422 27.3375 30.4422 26.5375 30.7422 25.6375C31.1422 23.9375 31.1422 20.4375 31.1422 20.4375C31.1422 20.4375 31.1422 16.9375 30.6422 15.2375ZM18.3422 23.6375V17.2375L23.8422 20.4375L18.3422 23.6375Z" fill="#DBDBDB"/>
</g>
</g>
</g>
</g>
</g>
</g>
</g>
<defs>
<clipPath id="clip0_0_1">
<rect width="1920" height="3867" fill="white" transform="translate(-1526.5 -3699.02)"/>
</clipPath>
<clipPath id="clip1_0_1">
<rect width="40" height="40" fill="white" transform="translate(0.242188 0.4375)"/>
</clipPath>
</defs>
</svg>
