<svg width="41" height="41" viewBox="0 0 41 41" fill="none" xmlns="http://www.w3.org/2000/svg">
<rect width="41" height="41" fill="#B7B7B7"/>
<g id="07/25" clip-path="url(#clip0_0_1)">
<rect width="1920" height="3867" transform="translate(-1582.5 -3699.02)" fill="white"/>
<g id="Group 57488">
<g id="Group 57461">
<g id="Group 33921">
<rect id="Rectangle 3458" x="-1582.5" y="-351.072" width="1920" height="519.488" fill="#243648"/>
<g id="Group 57404">
<g id="Frame 427320706">
<g id="Icon Linkedin" clip-path="url(#clip1_0_1)">
<path id="Vector" d="M20.2422 39.4375C30.7356 39.4375 39.2422 30.9309 39.2422 20.4375C39.2422 9.94409 30.7356 1.4375 20.2422 1.4375C9.74878 1.4375 1.24219 9.94409 1.24219 20.4375C1.24219 30.9309 9.74878 39.4375 20.2422 39.4375Z" stroke="#999999" stroke-width="1.5" stroke-miterlimit="10"/>
<g id="Group">
<g id="Group 20887">
<path id="Vector_2" d="M20.2403 15.3063C17.4009 15.3063 15.1094 17.5979 15.1094 20.4373C15.1094 23.2767 17.4009 25.5683 20.2403 25.5683C23.0798 25.5683 25.3713 23.2767 25.3713 20.4373C25.3713 17.5979 23.0798 15.3063 20.2403 15.3063ZM20.2403 23.7721C18.4041 23.7721 16.9056 22.2735 16.9056 20.4373C16.9056 18.6011 18.4041 17.1026 20.2403 17.1026C22.0766 17.1026 23.5751 18.6011 23.5751 20.4373C23.5751 22.2735 22.0766 23.7721 20.2403 23.7721ZM25.5815 13.9004C24.9185 13.9004 24.3831 14.4358 24.3831 15.0987C24.3831 15.7616 24.9185 16.297 25.5815 16.297C26.2444 16.297 26.7798 15.7642 26.7798 15.0987C26.7773 14.4333 26.2444 13.9004 25.5815 13.9004Z" fill="#DBDBDB"/>
<path id="Vector_3" d="M30.2414 20.4375C30.2414 19.0566 30.254 17.6881 30.1764 16.3097C30.0988 14.7086 29.7336 13.2877 28.5628 12.1169C27.3895 10.9436 25.9711 10.5808 24.37 10.5033C22.989 10.4257 21.6206 10.4382 20.2422 10.4382C18.8613 10.4382 17.4928 10.4257 16.1144 10.5033C14.5133 10.5808 13.0924 10.9461 11.9216 12.1169C10.7483 13.2902 10.3855 14.7086 10.308 16.3097C10.2304 17.6906 10.2429 19.0591 10.2429 20.4375C10.2429 21.8159 10.2304 23.1869 10.308 24.5653C10.3855 26.1664 10.7508 27.5873 11.9216 28.7581C13.0949 29.9314 14.5133 30.2942 16.1144 30.3717C17.4953 30.4493 18.8638 30.4368 20.2422 30.4368C21.6231 30.4368 22.9915 30.4493 24.37 30.3717C25.9711 30.2942 27.392 29.9289 28.5628 28.7581C29.7361 27.5848 30.0988 26.1664 30.1764 24.5653C30.2565 23.1869 30.2414 21.8184 30.2414 20.4375ZM28.04 26.3365C27.8573 26.7918 27.6372 27.132 27.2844 27.4823C26.9317 27.835 26.594 28.0551 26.1387 28.2378C24.8228 28.7606 21.6982 28.643 20.2397 28.643C18.7812 28.643 15.6541 28.7606 14.3382 28.2403C13.8829 28.0576 13.5427 27.8375 13.1924 27.4848C12.8397 27.132 12.6195 26.7943 12.4369 26.339C11.9166 25.0206 12.0341 21.896 12.0341 20.4375C12.0341 18.979 11.9166 15.8519 12.4369 14.536C12.6195 14.0807 12.8397 13.7405 13.1924 13.3902C13.5452 13.04 13.8829 12.8174 14.3382 12.6347C15.6541 12.1144 18.7812 12.232 20.2397 12.232C21.6982 12.232 24.8253 12.1144 26.1412 12.6347C26.5965 12.8174 26.9367 13.0375 27.2869 13.3902C27.6397 13.743 27.8598 14.0807 28.0425 14.536C28.5628 15.8519 28.4452 18.979 28.4452 20.4375C28.4452 21.896 28.5628 25.0206 28.04 26.3365Z" fill="#DBDBDB"/>
</g>
</g>
</g>
</g>
</g>
</g>
</g>
</g>
</g>
<defs>
<clipPath id="clip0_0_1">
<rect width="1920" height="3867" fill="white" transform="translate(-1582.5 -3699.02)"/>
</clipPath>
<clipPath id="clip1_0_1">
<rect width="40" height="40" fill="white" transform="translate(0.242188 0.4375)"/>
</clipPath>
</defs>
</svg>
