<svg width="41" height="41" viewBox="0 0 41 41" fill="none" xmlns="http://www.w3.org/2000/svg">
<g clip-path="url(#clip0_858_18830)">
<path d="M20.2422 39.4375C30.7356 39.4375 39.2422 30.9309 39.2422 20.4375C39.2422 9.94409 30.7356 1.4375 20.2422 1.4375C9.74878 1.4375 1.24219 9.94409 1.24219 20.4375C1.24219 30.9309 9.74878 39.4375 20.2422 39.4375Z" stroke="#999999" stroke-width="1.5" stroke-miterlimit="10"/>
<path d="M25.3438 10.9363V14.0363H23.5437C22.8437 14.0363 22.4437 14.1363 22.2437 14.4363C22.0437 14.7363 21.9438 15.1363 21.9438 15.7363V17.9363H25.2437L24.7437 21.3363H21.8438V30.1363H18.3438V21.3363H15.3438V17.9363H18.3438V15.4363C18.3438 14.0363 18.7437 12.9363 19.5437 12.1363C20.3437 11.3363 21.4437 10.9363 22.7437 10.9363C23.8438 10.8363 24.7437 10.8363 25.3438 10.9363Z" fill="#DBDBDB"/>
</g>
<defs>
<clipPath id="clip0_858_18830">
<rect width="40" height="40" fill="white" transform="translate(0.242188 0.4375)"/>
</clipPath>
</defs>
</svg>
