<svg width="41" height="41" viewBox="0 0 41 41" fill="none" xmlns="http://www.w3.org/2000/svg">
<rect width="41" height="41" fill="#B7B7B7"/>
<g id="07/25" clip-path="url(#clip0_0_1)">
<rect width="1920" height="3867" transform="translate(-1470.5 -3699.02)" fill="white"/>
<g id="Group 57488">
<g id="Group 57461">
<g id="Group 33921">
<rect id="Rectangle 3458" x="-1470.5" y="-351.072" width="1920" height="519.488" fill="#243648"/>
<g id="Group 57404">
<g id="Frame 427320706">
<g id="Icon Youtube" clip-path="url(#clip1_0_1)">
<path id="Vector" d="M20.2422 39.4375C30.7356 39.4375 39.2422 30.9309 39.2422 20.4375C39.2422 9.94409 30.7356 1.4375 20.2422 1.4375C9.74878 1.4375 1.24219 9.94409 1.24219 20.4375C1.24219 30.9309 9.74878 39.4375 20.2422 39.4375Z" stroke="#999999" stroke-width="1.5" stroke-miterlimit="10"/>
<g id="Group 20914">
<path id="Subtract" fill-rule="evenodd" clip-rule="evenodd" d="M10.7872 13.1675C10.2422 14.2371 10.2422 15.6372 10.2422 18.4375V22.4375C10.2422 25.2377 10.2422 26.6379 10.7872 27.7074C11.2665 28.6482 12.0314 29.4132 12.9722 29.8925C14.0418 30.4375 15.4419 30.4375 18.2422 30.4375H22.2422C25.0424 30.4375 26.4426 30.4375 27.5121 29.8925C28.4529 29.4132 29.2178 28.6482 29.6972 27.7074C30.2422 26.6379 30.2422 25.2377 30.2422 22.4375V18.4375C30.2422 15.6372 30.2422 14.2371 29.6972 13.1675C29.2178 12.2267 28.4529 11.4618 27.5121 10.9825C26.4426 10.4375 25.0424 10.4375 22.2422 10.4375H18.2422C15.4419 10.4375 14.0418 10.4375 12.9722 10.9825C12.0314 11.4618 11.2665 12.2267 10.7872 13.1675ZM12.2438 18.1465C12.2438 14.2862 14.5519 12.0654 15.7059 11.4375H24.2947C28.9702 11.4375 29.2422 14.5033 29.2422 16.3648C29.2422 16.3648 29.2244 24.5508 29.2422 24.5339C27.5333 27.1582 22.6968 27.4375 21.7869 27.4375C18.1472 27.4375 15.7059 25.9983 15.7059 25.956C14.0636 26.464 13.0649 26.2946 13.1759 26.2523C14.2689 24.974 13.9821 24.4266 13.7936 24.0669L13.7936 24.0669C13.7793 24.0395 13.7655 24.0132 13.7529 23.9878C12.2204 21.8056 12.2369 19.2636 12.2431 18.2965C12.2435 18.2412 12.2438 18.1911 12.2438 18.1465ZM23.5742 17.1504H24.3558V21.955H23.8271C23.7428 21.9626 23.5742 21.9136 23.5742 21.6561V17.1504ZM28.7202 20.116C28.7202 21.1444 27.8866 21.978 26.8582 21.978C25.8298 21.978 24.9961 21.1444 24.9961 20.116C24.9961 19.0876 25.8298 18.2539 26.8582 18.2539C27.8866 18.2539 28.7202 19.0876 28.7202 20.116ZM27.9833 20.1167C27.9833 20.7388 27.479 21.2431 26.8569 21.2431C26.2348 21.2431 25.7305 20.7388 25.7305 20.1167C25.7305 19.4946 26.2348 18.9902 26.8569 18.9902C27.479 18.9902 27.9833 19.4946 27.9833 20.1167ZM18.9531 17.1973H15.206V18.0249H17.8496C17.0604 19.0057 15.4405 21.0134 15.2749 21.1973C15.1094 21.3812 15.0834 21.5957 15.091 21.68V21.9559H18.5163C18.9209 21.9559 19.0221 21.7107 19.0221 21.5881V21.1973H16.2634C17.0144 20.2471 18.5623 18.2823 18.7462 18.0249C18.9301 17.7674 18.9608 17.5344 18.9531 17.4501V17.1973ZM21.0691 21.978C21.4732 21.978 21.8472 21.8493 22.1523 21.6307V21.7514C22.1523 21.9461 22.3209 21.9831 22.4052 21.9773H22.934V18.3457H22.1523V18.6012C21.8472 18.3826 21.4732 18.2539 21.0691 18.2539C20.0407 18.2539 19.207 19.0876 19.207 20.116C19.207 21.1444 20.0407 21.978 21.0691 21.978ZM21.0678 21.2431C21.5841 21.2431 22.0192 20.8959 22.1523 20.4222V19.8111C22.0192 19.3375 21.5841 18.9902 21.0678 18.9902C20.4457 18.9902 19.9414 19.4946 19.9414 20.1167C19.9414 20.7388 20.4457 21.2431 21.0678 21.2431Z" fill="#DBDBDB"/>
</g>
</g>
</g>
</g>
</g>
</g>
</g>
</g>
<defs>
<clipPath id="clip0_0_1">
<rect width="1920" height="3867" fill="white" transform="translate(-1470.5 -3699.02)"/>
</clipPath>
<clipPath id="clip1_0_1">
<rect width="40" height="40" fill="white" transform="translate(0.242188 0.4375)"/>
</clipPath>
</defs>
</svg>
