<svg width="41" height="41" viewBox="0 0 41 41" fill="none" xmlns="http://www.w3.org/2000/svg">
<g clip-path="url(#clip0_858_18833)">
<path d="M20.2422 39.4375C30.7356 39.4375 39.2422 30.9309 39.2422 20.4375C39.2422 9.94409 30.7356 1.4375 20.2422 1.4375C9.74878 1.4375 1.24219 9.94409 1.24219 20.4375C1.24219 30.9309 9.74878 39.4375 20.2422 39.4375Z" stroke="#999999" stroke-width="1.5" stroke-miterlimit="10"/>
<path d="M23.5414 12.1375C23.5414 13.9375 25.0414 15.4375 26.8414 15.4375H27.8414C28.2414 15.4375 28.5414 15.7375 28.5414 16.1375V18.1375C28.5414 18.5375 28.2414 18.8375 27.8414 18.8375H26.8414C25.6414 18.8375 24.5414 18.5375 23.5414 17.9375V24.6375C23.5414 27.8375 20.9414 30.4375 17.7414 30.4375C14.5414 30.4375 11.9414 27.8375 11.9414 24.6375C11.9414 21.4375 14.5414 18.8375 17.7414 18.8375H17.9414C18.3414 18.8375 18.6414 19.1375 18.6414 19.5375V21.5375C18.6414 21.9375 18.3414 22.2375 17.9414 22.2375H17.7414C16.3414 22.2375 15.2414 23.3375 15.2414 24.7375C15.2414 26.1375 16.3414 27.2375 17.7414 27.2375C19.1414 27.2375 20.2414 26.1375 20.2414 24.7375V11.1375C20.2414 10.7375 20.5414 10.4375 20.9414 10.4375H22.9414C23.3414 10.4375 23.6414 10.7375 23.6414 11.1375L23.5414 12.1375Z" fill="#DBDBDB"/>
</g>
<defs>
<clipPath id="clip0_858_18833">
<rect width="40" height="40" fill="white" transform="translate(0.242188 0.4375)"/>
</clipPath>
</defs>
</svg>
