<svg width="41" height="41" viewBox="0 0 41 41" fill="none" xmlns="http://www.w3.org/2000/svg">
<g clip-path="url(#clip0_2323_7855)">
<path d="M31.1121 40.9844H10.0515C8.51344 40.983 7.03878 40.3973 5.95119 39.3559C4.8636 38.3144 4.25195 36.9024 4.25049 35.4296V6.5392C4.25195 5.06639 4.8636 3.65432 5.95119 2.61289C7.03878 1.57146 8.51344 0.985776 10.0515 0.984375H31.1121C32.6482 0.988573 34.1201 1.5755 35.2053 2.61662C36.2905 3.65775 36.9006 5.06822 36.902 6.5392V35.4296C36.9006 36.9005 36.2905 38.311 35.2053 39.3521C34.1201 40.3932 32.6482 40.9802 31.1121 40.9844ZM10.0515 3.62953C9.24608 3.63093 8.47404 3.93793 7.9045 4.48329C7.33496 5.02866 7.01435 5.76793 7.01289 6.5392V35.4296C7.01435 36.2008 7.33496 36.9401 7.9045 37.4855C8.47404 38.0308 9.24608 38.3378 10.0515 38.3392H31.1121C31.9156 38.335 32.6848 38.0268 33.252 37.4817C33.8191 36.9367 34.1382 36.199 34.1396 35.4296V6.5392C34.1382 5.76793 33.8176 5.02866 33.248 4.48329C32.6785 3.93793 31.9065 3.63093 31.101 3.62953H10.0515Z" fill="#EC2045"/>
<path d="M23.5989 36.2213H17.7796C17.4288 36.2213 17.0924 36.082 16.8444 35.834C16.5964 35.5859 16.457 35.2495 16.457 34.8987C16.457 34.548 16.5964 34.2116 16.8444 33.9635C17.0924 33.7155 17.4288 33.5762 17.7796 33.5762H23.5989C23.9497 33.5762 24.2861 33.7155 24.5341 33.9635C24.7822 34.2116 24.9215 34.548 24.9215 34.8987C24.9215 35.2495 24.7822 35.5859 24.5341 35.834C24.2861 36.082 23.9497 36.2213 23.5989 36.2213Z" fill="#EC2045"/>
</g>
<defs>
<clipPath id="clip0_2323_7855">
<rect width="40" height="40" fill="white" transform="translate(0.689453 0.984375)"/>
</clipPath>
</defs>
</svg>
