<svg width="43" height="42" viewBox="0 0 43 42" fill="none" xmlns="http://www.w3.org/2000/svg">
<g clip-path="url(#clip0_2323_7906)">
<path d="M4.9826 1.83789H7.07241C9.27507 1.83789 11.0807 3.57379 11.2416 5.77345L11.252 6.09255V35.8752C11.2514 36.948 10.8527 37.9811 10.1359 38.7676C9.41902 39.5541 8.43685 40.0361 7.38589 40.117L7.07241 40.1298H4.9826C3.92827 40.1297 2.91292 39.7241 2.13983 38.9943C1.36674 38.2645 0.89299 37.2644 0.813428 36.1942L0.802979 35.8752V6.09255C0.802979 3.85034 2.50826 2.01233 4.66913 1.84853L4.9826 1.83789ZM17.5215 1.83789H19.6113C21.8139 1.83789 23.6195 3.57379 23.7805 5.77345L23.7909 6.09255V35.8752C23.7902 36.948 23.3916 37.9811 22.6747 38.7676C21.9579 39.5541 20.9757 40.0361 19.9248 40.117L19.6113 40.1298H17.5215C16.4671 40.1297 15.4518 39.7241 14.6787 38.9943C13.9056 38.2645 13.4319 37.2644 13.3523 36.1942L13.3418 35.8752V6.09255C13.3418 3.85034 15.0471 2.01233 17.208 1.84853L17.5215 1.83789ZM32.0958 6.09255C33.8513 6.09255 35.4562 7.22216 36.0456 8.95593L36.1438 9.28992L42.4446 34.2754C42.7069 35.3149 42.5735 36.417 42.0712 37.3607C41.569 38.3043 40.7349 39.0199 39.7362 39.364L39.4352 39.4554L37.4102 39.983C36.3937 40.2473 35.3168 40.1132 34.3929 39.6073C33.4689 39.1014 32.7655 38.2606 32.4218 37.2515L32.3236 36.9218L26.0207 11.9363C25.7587 10.8962 25.8926 9.79373 26.3957 8.84996C26.8988 7.90619 27.7338 7.19097 28.7333 6.84775L29.0322 6.75628L31.0551 6.2287C31.402 6.13722 31.7531 6.09255 32.0958 6.09255ZM7.07241 5.02888H4.9826C4.73815 5.02921 4.50152 5.11661 4.31372 5.27591C4.12593 5.43521 3.99882 5.65639 3.95441 5.90109L3.9377 6.09255V35.8752C3.9377 36.3942 4.30759 36.8325 4.79452 36.9218L4.9826 36.9388H7.07241C7.58442 36.9388 8.01283 36.5602 8.1006 36.0666L8.11732 35.8752V6.09255C8.117 5.84371 8.03114 5.60283 7.87465 5.41166C7.71815 5.2205 7.50088 5.0911 7.2605 5.0459L7.07241 5.02888ZM19.6113 5.02888H17.5215C17.277 5.02921 17.0404 5.11661 16.8526 5.27591C16.6648 5.43521 16.5377 5.65639 16.4933 5.90109L16.4766 6.09255V35.8752C16.4766 36.3942 16.8465 36.8325 17.3334 36.9218L17.5215 36.9388H19.6113C20.1233 36.9388 20.5517 36.5602 20.6395 36.0666L20.6562 35.8752V6.09255C20.6559 5.84371 20.57 5.60283 20.4135 5.41166C20.257 5.2205 20.0398 5.0911 19.7994 5.0459L19.6113 5.02888ZM32.0979 9.28354L31.9663 9.29205L31.8346 9.31971L29.8117 9.84516C29.5773 9.90504 29.3708 10.0461 29.2274 10.244C29.084 10.442 29.0128 10.6845 29.0259 10.9301L29.0572 11.1428L35.3601 36.1283C35.4179 36.3562 35.5484 36.5582 35.731 36.7026C35.9137 36.8469 36.1382 36.9255 36.3695 36.9261L36.5011 36.9197L36.6307 36.8941L38.6578 36.3623C38.8943 36.3003 39.102 36.1559 39.2448 35.9542C39.3876 35.7525 39.4564 35.5062 39.4394 35.2582L39.4081 35.071L33.1073 10.0813C33.0492 9.85354 32.9186 9.65178 32.736 9.50748C32.5534 9.36317 32.3291 9.28443 32.0979 9.28354Z" fill="#D24F5B"/>
</g>
<defs>
<clipPath id="clip0_2323_7906">
<rect width="41.773" height="41.773" fill="white" transform="translate(0.802979 0.0976562)"/>
</clipPath>
</defs>
</svg>
