<svg width="65" height="65" viewBox="0 0 65 65" fill="none" xmlns="http://www.w3.org/2000/svg">
<path fill-rule="evenodd" clip-rule="evenodd" d="M34.4576 35.8755H30.8544L32.656 39.0755L34.4576 35.8755ZM30.0656 34.4739H35.2464L36.8944 31.5379C36.1098 31.5063 35.3692 31.1665 34.8336 30.5923C34.5551 30.8912 34.218 31.1296 33.8434 31.2927C33.4688 31.4557 33.0646 31.5398 32.656 31.5398C32.2474 31.5398 31.8432 31.4557 31.4686 31.2927C31.0939 31.1296 30.7569 30.8912 30.4784 30.5923C29.9427 31.1665 29.2022 31.5063 28.4176 31.5379L30.0656 34.4739ZM14.8368 7.63547C17.792 7.23227 23.2864 6.68347 27.0864 8.97787V29.1667L27.2336 29.4291C27.4104 29.6513 27.652 29.8129 27.9249 29.8916C28.1978 29.9703 28.4884 29.9622 28.7564 29.8683C29.0244 29.7743 29.2565 29.5994 29.4206 29.3676C29.5847 29.1358 29.6725 28.8587 29.672 28.5747V8.97787H31.288V28.5747C31.288 28.9379 31.4323 29.2863 31.6891 29.5431C31.946 29.8 32.2944 29.9443 32.6576 29.9443C33.0208 29.9443 33.3692 29.8 33.626 29.5431C33.8829 29.2863 34.0272 28.9379 34.0272 28.5747V8.97787H35.6432V28.5747C35.6427 28.8587 35.7305 29.1358 35.8946 29.3676C36.0587 29.5994 36.2908 29.7743 36.5588 29.8683C36.8268 29.9622 37.1174 29.9703 37.3903 29.8916C37.6631 29.8129 37.9048 29.6513 38.0816 29.4291L38.2288 29.1667V8.97787C42.0288 6.68987 46.3088 7.11387 50.4784 7.64187V37.9763C43.3616 38.2579 37.44 40.8451 32.664 46.1523C27.872 40.8451 21.944 38.2579 14.8368 37.9763V7.63547Z" fill="#F58220"/>
<path fill-rule="evenodd" clip-rule="evenodd" d="M4.09697 15.0747C6.92577 13.8523 9.36737 13.5611 12.2042 13.3867V40.4139C22.4282 40.4763 27.833 43.7643 31.5018 48.8939C31.537 49.0171 31.1818 49.0747 29.4122 48.1659C20.5034 44.0411 13.5914 43.9547 4.85697 46.8075C4.07937 46.9979 3.73697 46.5995 3.77697 45.9147C3.7535 35.871 3.72897 25.8278 3.70337 15.7851C3.68611 15.6404 3.71484 15.4939 3.78549 15.3664C3.85613 15.2389 3.9651 15.1368 4.09697 15.0747Z" fill="#007E41"/>
<path d="M47.1321 53.245H51.0377C51.1121 53.2425 51.1861 53.2555 51.2553 53.283C51.3244 53.3105 51.387 53.3521 51.4393 53.405C51.493 53.4617 51.5348 53.5286 51.5623 53.6017C51.5898 53.6747 51.6024 53.7526 51.5993 53.8306C51.6034 53.9148 51.59 53.9989 51.56 54.0776C51.5299 54.1564 51.484 54.2281 51.4249 54.2882C51.3705 54.3435 51.3054 54.3871 51.2336 54.4165C51.1619 54.446 51.0849 54.4606 51.0073 54.4594H47.1321V53.245ZM47.1689 55.917H51.2297C51.3086 55.9129 51.3874 55.9253 51.4611 55.9536C51.5348 55.9819 51.6017 56.0254 51.6575 56.0812C51.7134 56.137 51.7568 56.204 51.7851 56.2777C51.8134 56.3514 51.8259 56.4302 51.8217 56.509C51.8305 56.5958 51.8207 56.6834 51.7931 56.7661C51.7656 56.8489 51.7208 56.9248 51.6617 56.989C51.5432 57.0918 51.3897 57.1451 51.2329 57.1378H47.1689V55.917ZM44.9993 56.389V58.8066H51.3193C51.6995 58.8111 52.0796 58.7897 52.4569 58.7426C52.7446 58.7058 53.023 58.6157 53.2777 58.477C53.5213 58.3382 53.7154 58.1267 53.8329 57.8722C53.9794 57.5311 54.0472 57.1615 54.0313 56.7906C54.0446 56.4911 53.9899 56.1924 53.8713 55.917C53.7839 55.7181 53.6446 55.5462 53.4681 55.4194C53.3288 55.3193 53.1711 55.2475 53.0041 55.2082C52.8659 55.1778 52.7249 55.1617 52.5833 55.1602V55.133C52.679 55.1285 52.7737 55.1112 52.8649 55.0818C53.0097 55.0357 53.1437 54.9606 53.2585 54.861C53.4193 54.7232 53.5444 54.5487 53.6233 54.3522C53.7388 54.0703 53.7933 53.7671 53.7833 53.4626C53.7998 53.1166 53.7235 52.7725 53.5625 52.4658C53.4279 52.2277 53.2266 52.0341 52.9833 51.909C52.7488 51.7907 52.4954 51.7144 52.2345 51.6834C51.9344 51.6498 51.6325 51.6343 51.3305 51.637H45.0105L44.9993 56.389ZM41.9417 51.637V58.8066H44.1817V51.637H41.9417ZM36.5017 57.077V51.637H34.2617V58.8066H41.3369V57.0738L36.5017 57.077ZM27.9417 57.1394V55.9554H33.2217V54.5042H27.9417V53.2978H33.5673V51.637H25.7065V58.8066H33.5673V57.1378L27.9417 57.1394ZM22.6505 51.6402V58.8098H24.8905V51.637L22.6505 51.6402ZM16.6201 57.0114L13.7577 51.637H11.2761L15.1817 58.7794H18.0361L21.9641 51.637H19.4841L16.6201 57.0114Z" fill="#007E41"/>
<path fill-rule="evenodd" clip-rule="evenodd" d="M60.9834 15.0747C58.1498 13.8523 55.7034 13.5611 52.8714 13.3867V40.4139C42.6474 40.4763 37.241 43.7643 33.5738 48.8939C33.5386 49.0171 33.8938 49.0747 35.6634 48.1659C44.5658 44.0491 51.4842 43.9627 60.2186 46.8155C60.9962 47.0059 61.3386 46.6075 61.2986 45.9227L61.3706 15.7931C61.3904 15.6478 61.3636 15.5 61.294 15.3709C61.2245 15.2418 61.1157 15.1381 60.9834 15.0747Z" fill="#007E41"/>
</svg>
