<svg width="41" height="41" viewBox="0 0 41 41" fill="none" xmlns="http://www.w3.org/2000/svg">
<g clip-path="url(#clip0_2323_7869)">
<path d="M20.2714 5.26403C23.5453 5.26403 26.7456 6.23485 29.4678 8.05372C32.1899 9.87259 34.3116 12.4578 35.5644 15.4825C36.8173 18.5072 37.1451 21.8354 36.5064 25.0464C35.8677 28.2574 34.2911 31.2068 31.9762 33.5218C29.6612 35.8368 26.7117 37.4133 23.5007 38.052C20.2898 38.6907 16.9615 38.3629 13.9368 37.1101C10.9122 35.8572 8.32694 33.7356 6.50807 31.0134C4.6892 28.2913 3.71838 25.0909 3.71838 21.8171C3.71838 17.4269 5.46236 13.2166 8.56665 10.1123C11.6709 7.008 15.8813 5.26403 20.2714 5.26403ZM20.2714 2.65039C16.4806 2.65039 12.7749 3.7745 9.62298 5.88056C6.47104 7.98662 4.0144 10.98 2.56372 14.4823C1.11304 17.9845 0.733477 21.8383 1.47303 25.5563C2.21258 29.2743 4.03802 32.6894 6.71853 35.3699C9.39904 38.0504 12.8142 39.8759 16.5322 40.6154C20.2501 41.355 24.1039 40.9754 27.6062 39.5247C31.1084 38.0741 34.1018 35.6174 36.2079 32.4655C38.314 29.3135 39.4381 25.6079 39.4381 21.8171C39.4381 16.7337 37.4187 11.8586 33.8243 8.26418C30.2298 4.66973 25.3547 2.65039 20.2714 2.65039Z" fill="#F7931A"/>
<path d="M20.2718 30.9857C19.927 30.9857 19.5964 30.854 19.3526 30.6196C19.1088 30.3851 18.9718 30.0672 18.9718 29.7357V13.9023C18.9718 13.5708 19.1088 13.2529 19.3526 13.0185C19.5964 12.784 19.927 12.6523 20.2718 12.6523C20.6166 12.6523 20.9473 12.784 21.191 13.0185C21.4348 13.2529 21.5718 13.5708 21.5718 13.9023V29.7357C21.5718 30.0672 21.4348 30.3851 21.191 30.6196C20.9473 30.854 20.6166 30.9857 20.2718 30.9857ZM15.0718 27.2357C14.727 27.2357 14.3964 27.104 14.1526 26.8696C13.9088 26.6351 13.7718 26.3172 13.7718 25.9857V17.6523C13.7718 17.3208 13.9088 17.0029 14.1526 16.7685C14.3964 16.534 14.727 16.4023 15.0718 16.4023C15.4166 16.4023 15.7473 16.534 15.9911 16.7685C16.2349 17.0029 16.3718 17.3208 16.3718 17.6523V25.9857C16.3718 26.3172 16.2349 26.6351 15.9911 26.8696C15.7473 27.104 15.4166 27.2357 15.0718 27.2357ZM25.4718 27.2357C25.127 27.2357 24.7964 27.104 24.5526 26.8696C24.3088 26.6351 24.1718 26.3172 24.1718 25.9857V17.6523C24.1718 17.3208 24.3088 17.0029 24.5526 16.7685C24.7964 16.534 25.127 16.4023 25.4718 16.4023C25.8166 16.4023 26.1472 16.534 26.391 16.7685C26.6348 17.0029 26.7718 17.3208 26.7718 17.6523V25.9857C26.7718 26.3172 26.6348 26.6351 26.391 26.8696C26.1472 27.104 25.8166 27.2357 25.4718 27.2357ZM29.8051 25.1523C29.4604 25.1523 29.1297 25.0206 28.8859 24.7862C28.6421 24.5518 28.5051 24.2338 28.5051 23.9023V19.7357C28.5051 19.4042 28.6421 19.0862 28.8859 18.8518C29.1297 18.6174 29.4604 18.4857 29.8051 18.4857C30.1499 18.4857 30.4806 18.6174 30.7244 18.8518C30.9682 19.0862 31.1051 19.4042 31.1051 19.7357V23.9023C31.1051 24.2338 30.9682 24.5518 30.7244 24.7862C30.4806 25.0206 30.1499 25.1523 29.8051 25.1523ZM10.7385 25.1523C10.3937 25.1523 10.063 25.0206 9.81924 24.7862C9.57544 24.5518 9.43848 24.2338 9.43848 23.9023V19.7357C9.43848 19.4042 9.57544 19.0862 9.81924 18.8518C10.063 18.6174 10.3937 18.4857 10.7385 18.4857C11.0833 18.4857 11.4139 18.6174 11.6577 18.8518C11.9015 19.0862 12.0385 19.4042 12.0385 19.7357V23.9023C12.0385 24.2338 11.9015 24.5518 11.6577 24.7862C11.4139 25.0206 11.0833 25.1523 10.7385 25.1523Z" fill="#F7931A"/>
</g>
<defs>
<clipPath id="clip0_2323_7869">
<rect width="40" height="40" fill="white" transform="translate(0.689453 0.984375)"/>
</clipPath>
</defs>
</svg>
