<svg width="247" height="23" viewBox="0 0 247 23" fill="none" xmlns="http://www.w3.org/2000/svg">
<path id="Vector 1" d="M241.501 5.8175C123.101 -2.1825 58.8343 0.150832 41.501 2.3175C34.1916 2.98078 32.7054 5.01046 32.876 5.94238C32.876 7.94238 34.7093 8.35905 35.626 8.31738C63.7093 8.02572 119.851 7.49238 119.751 7.69238C111.001 8.06738 72.001 10.0674 36.751 13.6924C1.50098 17.3174 1.25098 19.6924 1.00098 20.8174C0.62598 23.4424 8.00098 21.8174 18.501 20.8174C126.001 5.81738 234.251 11.1924 240.876 11.1924C247.501 11.1924 246.751 9.06738 246.751 8.81738C246.651 6.51738 243.209 5.85913 241.501 5.8175Z" fill="#2AAB4A"/>
</svg>
